<?xml version="1.0" encoding="UTF-8" standalone="no"?>
<!-- Created with Inkscape (http://www.inkscape.org/) -->

<svg
   xmlns:dc="http://purl.org/dc/elements/1.1/"
   xmlns:cc="http://creativecommons.org/ns#"
   xmlns:rdf="http://www.w3.org/1999/02/22-rdf-syntax-ns#"
   xmlns:svg="http://www.w3.org/2000/svg"
   xmlns="http://www.w3.org/2000/svg"
   xmlns:sodipodi="http://sodipodi.sourceforge.net/DTD/sodipodi-0.dtd"
   xmlns:inkscape="http://www.inkscape.org/namespaces/inkscape"
   width="357.76907mm"
   height="460.09439mm"
   viewBox="0 0 357.76907 460.09439"
   version="1.1"
   id="svg897"
   inkscape:version="0.92.4 (5da689c313, 2019-01-14)"
   sodipodi:docname="incubator-logo-blue.svg">
  <defs
     id="defs891" />
  <sodipodi:namedview
     id="base"
     pagecolor="#ffffff"
     bordercolor="#666666"
     borderopacity="1.0"
     inkscape:pageopacity="0.0"
     inkscape:pageshadow="2"
     inkscape:zoom="0.35"
     inkscape:cx="37.527614"
     inkscape:cy="-607.67317"
     inkscape:document-units="mm"
     inkscape:current-layer="layer1"
     showgrid="false"
     fit-margin-top="5"
     fit-margin-left="5"
     fit-margin-right="5"
     fit-margin-bottom="5"
     inkscape:window-width="3840"
     inkscape:window-height="2032"
     inkscape:window-x="0"
     inkscape:window-y="54"
     inkscape:window-maximized="1" />
  <metadata
     id="metadata894">
    <rdf:RDF>
      <cc:Work
         rdf:about="">
        <dc:format>image/svg+xml</dc:format>
        <dc:type
           rdf:resource="http://purl.org/dc/dcmitype/StillImage" />
        <dc:title></dc:title>
      </cc:Work>
    </rdf:RDF>
  </metadata>
  <g
     inkscape:label="Layer 1"
     inkscape:groupmode="layer"
     id="layer1"
     transform="translate(107.06906,472.04124)">
    <path
       style="display:inline;fill:#071159;fill-opacity:1;stroke:#071159;stroke-width:11;stroke-miterlimit:4;stroke-dasharray:none;stroke-opacity:1"
       d="m 67.445868,-461.54113 c -10.18231,-0.0206 -20.14657,2.92684 -29.47138,6.79404 -21.51256,9.27607 -39.4083201,25.03334 -54.713673,42.32829 -25.349076,28.91296 -44.084815,63.05157 -57.641181,98.73022 -11.609066,30.85084 -19.299379,63.21552 -21.780409,96.04552 -0.582578,12.54822 -0.425773,25.16473 -0.231426,37.73911 0.679789,15.6669 2.994853,31.3468 6.998325,46.55947 5.687711,21.60963 15.359741,42.498045 30.165237,59.558165 14.360665,16.85787 33.16232,29.68217 53.8874359,37.72955 22.4699711,8.8064 46.7146011,12.7979 70.7988011,13.51206 13.0528,0.2385 26.11083,0.17952 38.992792,-1.91595 25.9036,-3.79309 51.05778,-13.52132 72.01531,-29.14565 17.38701,-12.71405 31.66774,-29.31684 42.1418,-47.968565 11.4259,-20.21002 18.63767,-42.70045 21.12084,-65.67866 0.74282,-12.01103 0.37148,-24.07262 0.40717,-36.10779 0.0815,-11.45203 -1.11533,-22.82134 -2.82342,-34.13704 -6.38051,-43.17858 -20.24282,-85.36893 -41.35731,-123.74963 -14.37072,-25.86583 -32.15683,-50.23417 -54.72302,-69.77829 -15.7017,-13.60676 -34.28741,-24.69092 -54.883192,-29.06409 -6.17765,-1.42898 -12.58252,-1.39969 -18.9027,-1.45076 z m 2.4851,3.38765 c 18.88662,-0.11421 37.025582,7.25602 52.549772,17.433 22.05143,14.5118 39.83908,34.51528 54.66893,56.00499 22.3674,32.786 38.24407,69.66061 48.35536,107.83097 7.35592,28.04464 11.44169,56.96392 11.71847,85.94041 0.32423,32.0055 -7.50271,64.35151 -24.26493,91.898285 -15.31895,25.40982 -38.47,46.19765 -65.76017,58.49784 -23.49293,10.66557 -49.577362,15.16206 -75.354842,14.60146 -27.54604,-0.28607 -55.45139,-4.44768 -80.7942201,-15.47167 -11.6947839,-5.18084 -22.8920089,-11.68498 -32.6155469,-19.96374 -7.770863,-6.95672 -15.345812,-14.2571 -21.294794,-22.836 -14.484269,-19.940865 -22.716312,-43.687665 -26.724897,-67.739775 -2.194341,-12.9001 -3.393194,-25.9638 -3.379539,-39.04802 -0.138584,-11.80023 -0.09783,-23.63385 1.384951,-35.3629 5.217938,-48.88531 21.156281,-96.54863 45.87355,-139.20228 14.424538,-24.58858 31.9127,-47.80058 53.9514959,-66.27535 13.9852901,-11.56166 30.1327601,-21.43761 48.2402001,-25.00272 4.42762,-0.8488 8.93554,-1.28568 13.44621,-1.3045 z"
       id="path9034"
       inkscape:connector-curvature="0" />
    <g
       style="display:inline;fill:#071159;fill-opacity:1"
       id="g9091"
       transform="matrix(2.1519086,0,0,2.1519086,-60.406389,-624.18887)">
      <path
         d="m 60.4089,220.1395 -0.609,-15.6219 13.481,-8.4941 13.6126,7.2951 0.692,16.0431 -13.481,8.4935 z"
         style="fill:#071159;fill-opacity:1;fill-rule:evenodd"
         id="path2"
         inkscape:connector-curvature="0" />
      <path
         d="m 33.6628,217.112 -0.0823,-22.4502 29.2906,-18.2808 14.0091,8.3629 c -10.1028,6.5645 -14.7455,9.3309 -24.9875,15.6991 l -0.1926,5.9751 z"
         style="fill:#071159;fill-opacity:1;fill-rule:evenodd"
         id="path4"
         inkscape:connector-curvature="0" />
      <path
         d="m 35.0548,248.4071 -12.0432,-19.0814 28.7863,-16.8447 1.1557,12.3346 10.7928,5.589 z"
         style="fill:#071159;fill-opacity:1;fill-rule:evenodd"
         id="path6"
         inkscape:connector-curvature="0" />
      <path
         d="m 50.128,245.2642 19.919,10.3549 29.8294,-18.2487 -1.8935,-15.6419 c -10.3375,6.1835 -14.3477,8.7856 -24.6876,14.9664 l -5.3995,-2.5663 z"
         style="fill:#071159;fill-opacity:1;fill-rule:evenodd"
         id="path8"
         inkscape:connector-curvature="0" />
    </g>
  </g>
</svg>
